<svg width="320" height="320" viewBox="0 0 320 320" fill="none" xmlns="http://www.w3.org/2000/svg" xmlns:xlink="http://www.w3.org/1999/xlink">
<g>
<path fill-rule="evenodd" clip-rule="evenodd" d="M179.201 261.983C173.292 261.983 169.353 268.446 170.25 274.286C170.55 276.241 170.706 278.245 170.706 280.285C170.706 301.944 153.147 319.502 131.488 319.502C109.829 319.502 92.2701 301.944 92.2701 280.285C92.2701 278.245 92.4258 276.241 92.726 274.286C93.6225 268.446 89.6839 261.983 83.7754 261.983L8.60537 261.983C4.27349 261.983 0.761805 258.471 0.761805 254.139L0.761798 178.969C0.761798 173.061 7.22435 169.122 13.0645 170.019C15.0203 170.319 17.0237 170.475 19.0635 170.475C40.7229 170.475 58.2813 152.916 58.2813 131.257C58.2813 109.597 40.7228 92.0389 19.0634 92.0389C17.0237 92.0389 15.0203 92.1947 13.0645 92.4949C7.22435 93.3913 0.76179 89.4528 0.76179 83.5442L0.761783 8.37417C0.761783 4.04229 4.27347 0.530606 8.60535 0.530606L83.7753 0.530599C89.6839 0.530599 93.6225 6.99318 92.726 12.8333C92.4258 14.7891 92.2701 16.7925 92.2701 18.8323C92.2701 40.4917 109.829 58.0501 131.488 58.0501C153.147 58.0501 170.706 40.4917 170.706 18.8323C170.706 16.7925 170.55 14.7891 170.25 12.8333C169.353 6.99318 173.292 0.530591 179.201 0.530591L254.371 0.530584C258.702 0.530584 262.214 4.04227 262.214 8.37415L262.214 83.5442C262.214 89.4527 268.677 93.3913 274.517 92.4949C276.473 92.1946 278.476 92.0389 280.516 92.0389C302.175 92.0389 319.734 109.597 319.734 131.257C319.734 152.916 302.175 170.475 280.516 170.475C278.476 170.475 276.473 170.319 274.517 170.019C268.677 169.122 262.214 173.061 262.214 178.969L262.214 254.139C262.214 258.471 258.702 261.983 254.371 261.983L179.201 261.983Z" fill="red"/>
<path d="M319.734 131.257L312.734 131.257L319.734 131.257ZM274.517 92.4949L273.455 85.5759L274.517 92.4949ZM274.517 170.019L273.455 176.938L274.517 170.019ZM13.0645 92.4949L12.0025 85.5759L13.0645 92.4949ZM170.25 12.8333L163.331 13.8953L170.25 12.8333ZM92.726 274.286L99.645 275.348L92.726 274.286ZM262.214 8.37415L269.214 8.37415L262.214 8.37415ZM13.0645 170.019L14.1265 163.1L13.0645 170.019ZM170.25 274.286L177.169 273.224L170.25 274.286ZM177.706 280.285C177.706 277.888 177.523 275.53 177.169 273.224L163.331 275.348C163.577 276.953 163.706 278.602 163.706 280.285L177.706 280.285ZM131.488 326.502C157.013 326.502 177.706 305.81 177.706 280.285L163.706 280.285C163.706 298.078 149.281 312.502 131.488 312.502L131.488 326.502ZM85.2701 280.285C85.2701 305.81 105.963 326.502 131.488 326.502L131.488 312.502C113.695 312.502 99.2701 298.078 99.2701 280.285L85.2701 280.285ZM85.8071 273.224C85.4531 275.53 85.2701 277.888 85.2701 280.285L99.2701 280.285C99.2701 278.602 99.3985 276.953 99.645 275.348L85.8071 273.224ZM8.60537 268.983L83.7754 268.983L83.7754 254.983L8.60537 254.983L8.60537 268.983ZM-6.2382 178.969L-6.2382 254.139L7.7618 254.139L7.7618 178.969L-6.2382 178.969ZM19.0635 163.475C17.3805 163.475 15.7321 163.346 14.1265 163.1L12.0025 176.938C14.3085 177.292 16.6669 177.475 19.0635 177.475L19.0635 163.475ZM51.2813 131.257C51.2813 149.05 36.8569 163.475 19.0635 163.475L19.0635 177.475C44.5889 177.475 65.2813 156.782 65.2813 131.257L51.2813 131.257ZM19.0634 99.0389C36.8569 99.0389 51.2813 113.463 51.2813 131.257L65.2813 131.257C65.2813 105.731 44.5888 85.0389 19.0634 85.0389L19.0634 99.0389ZM14.1265 99.4138C15.7321 99.1674 17.3804 99.0389 19.0634 99.0389L19.0634 85.0389C16.6669 85.0389 14.3085 85.2219 12.0025 85.5759L14.1265 99.4138ZM-6.23822 8.37417L-6.23821 83.5442L7.76179 83.5442L7.76178 8.37417L-6.23822 8.37417ZM83.7753 -6.4694L8.60535 -6.46939L8.60535 7.53061L83.7753 7.5306L83.7753 -6.4694ZM99.2701 18.8323C99.2701 17.1493 99.3985 15.5009 99.645 13.8953L85.8071 11.7713C85.4531 14.0773 85.2701 16.4357 85.2701 18.8323L99.2701 18.8323ZM131.488 51.0501C113.695 51.0501 99.2701 36.6257 99.2701 18.8323L85.2701 18.8323C85.2701 44.3577 105.963 65.0501 131.488 65.0501L131.488 51.0501ZM163.706 18.8323C163.706 36.6257 149.281 51.0501 131.488 51.0501L131.488 65.0501C157.013 65.0501 177.706 44.3577 177.706 18.8323L163.706 18.8323ZM163.331 13.8953C163.577 15.5009 163.706 17.1493 163.706 18.8323L177.706 18.8323C177.706 16.4357 177.523 14.0773 177.169 11.7713L163.331 13.8953ZM254.371 -6.46942L179.201 -6.46941L179.201 7.53059L254.371 7.53058L254.371 -6.46942ZM269.214 83.5442L269.214 8.37415L255.214 8.37415L255.214 83.5442L269.214 83.5442ZM280.516 85.0389C278.119 85.0389 275.761 85.2219 273.455 85.5759L275.579 99.4138C277.184 99.1674 278.833 99.0389 280.516 99.0389L280.516 85.0389ZM326.734 131.257C326.734 105.731 306.041 85.0389 280.516 85.0389L280.516 99.0389C298.309 99.0389 312.734 113.463 312.734 131.257L326.734 131.257ZM280.516 177.475C306.041 177.475 326.734 156.782 326.734 131.257L312.734 131.257C312.734 149.05 298.309 163.475 280.516 163.475L280.516 177.475ZM273.455 176.938C275.761 177.292 278.119 177.475 280.516 177.475L280.516 163.475C278.833 163.475 277.184 163.346 275.579 163.1L273.455 176.938ZM269.214 254.139L269.214 178.969L255.214 178.969L255.214 254.139L269.214 254.139ZM179.201 268.983L254.371 268.983L254.371 254.983L179.201 254.983L179.201 268.983ZM255.214 254.139C255.214 254.605 254.836 254.983 254.371 254.983L254.371 268.983C262.568 268.983 269.214 262.337 269.214 254.139L255.214 254.139ZM255.214 83.5442C255.214 89.2768 258.391 93.7168 262.212 96.3414C265.975 98.9258 270.838 100.141 275.579 99.4138L273.455 85.5759C272.355 85.7447 271.067 85.4393 270.139 84.8014C269.268 84.2036 269.214 83.7201 269.214 83.5442L255.214 83.5442ZM275.579 163.1C270.838 162.372 265.975 163.588 262.212 166.172C258.391 168.797 255.214 173.237 255.214 178.969L269.214 178.969C269.214 178.793 269.268 178.31 270.139 177.712C271.067 177.074 272.355 176.769 273.455 176.938L275.579 163.1ZM7.76178 8.37417C7.76178 7.90829 8.13947 7.53061 8.60535 7.53061L8.60535 -6.46939C0.407473 -6.46939 -6.23822 0.176298 -6.23822 8.37417L7.76178 8.37417ZM12.0025 85.5759C10.9029 85.7447 9.61503 85.4393 8.68629 84.8014C7.81602 84.2036 7.76179 83.7201 7.76179 83.5442L-6.23821 83.5442C-6.23821 89.2769 -3.06118 93.7169 0.759868 96.3414C4.52244 98.9258 9.38597 100.141 14.1265 99.4138L12.0025 85.5759ZM177.169 11.7713C177 10.6717 177.305 9.38386 177.943 8.45512C178.541 7.58482 179.025 7.53059 179.201 7.53059L179.201 -6.46941C173.468 -6.46941 169.028 -3.29235 166.403 0.528669C163.819 4.29127 162.603 9.15477 163.331 13.8953L177.169 11.7713ZM8.60537 254.983C8.13946 254.983 7.7618 254.605 7.7618 254.139L-6.2382 254.139C-6.23819 262.337 0.407497 268.983 8.60537 268.983L8.60537 254.983ZM99.645 275.348C100.373 270.607 99.1569 265.744 96.5726 261.981C93.948 258.16 89.508 254.983 83.7754 254.983L83.7754 268.983C83.9512 268.983 84.4348 269.037 85.0326 269.907C85.6705 270.836 85.9758 272.124 85.8071 273.224L99.645 275.348ZM254.371 7.53058C254.836 7.53058 255.214 7.90827 255.214 8.37415L269.214 8.37415C269.214 0.176274 262.568 -6.46942 254.371 -6.46942L254.371 7.53058ZM7.7618 178.969C7.7618 178.793 7.81603 178.31 8.68633 177.712C9.61504 177.074 10.9029 176.769 12.0025 176.938L14.1265 163.1C9.38597 162.372 4.52245 163.588 0.759874 166.172C-3.06117 168.797 -6.2382 173.237 -6.2382 178.969L7.7618 178.969ZM83.7753 7.5306C83.9512 7.5306 84.4348 7.58483 85.0326 8.45513C85.6705 9.38387 85.9758 10.6717 85.8071 11.7713L99.645 13.8953C100.373 9.15477 99.1569 4.29128 96.5725 0.528676C93.948 -3.29234 89.508 -6.4694 83.7753 -6.4694L83.7753 7.5306ZM177.169 273.224C177 272.124 177.305 270.836 177.943 269.907C178.541 269.037 179.025 268.983 179.201 268.983L179.201 254.983C173.468 254.983 169.028 258.16 166.403 261.981C163.819 265.744 162.603 270.607 163.331 275.348L177.169 273.224Z" fill="transparent" />
</g>
</svg>
