<svg width="320" height="262" viewBox="0 0 320 262" fill="none" xmlns="http://www.w3.org/2000/svg" xmlns:xlink="http://www.w3.org/1999/xlink">
<g>
<path fill-rule="evenodd" clip-rule="evenodd" d="M280.421 92.039C278.381 92.039 276.377 92.1947 274.422 92.4949C268.581 93.3913 262.119 89.4528 262.119 83.5442L262.119 8.37421C262.119 4.04233 258.607 0.53064 254.275 0.53064L179.105 0.530636C173.197 0.530635 169.258 6.9932 170.155 12.8333C170.455 14.7891 170.611 16.7925 170.611 18.8323C170.611 40.4917 153.052 58.0501 131.393 58.0501C109.733 58.0501 92.1749 40.4917 92.1749 18.8323C92.1749 16.7925 92.3306 14.7891 92.6308 12.8333C93.5273 6.99319 89.5887 0.530631 83.6801 0.53063L8.51013 0.530626C4.17825 0.530626 0.666565 4.04231 0.666565 8.37419L0.666561 83.5442C0.666561 89.4528 7.12912 93.3913 12.9693 92.4949C14.925 92.1947 16.9285 92.039 18.9682 92.039C40.6277 92.039 58.1861 109.597 58.1861 131.257C58.1861 152.916 40.6276 170.475 18.9683 170.475C16.9285 170.475 14.9251 170.319 12.9693 170.019C7.12914 169.122 0.666557 173.061 0.666557 178.969L0.666554 254.139C0.666554 258.471 4.17824 261.983 8.51012 261.983L83.6801 261.983C89.5887 261.983 93.5273 255.52 92.6308 249.68C92.3306 247.724 92.1749 245.721 92.1749 243.681C92.1749 222.022 109.733 204.463 131.393 204.463C153.052 204.463 170.611 222.022 170.611 243.681C170.611 245.721 170.455 247.724 170.155 249.68C169.258 255.52 173.197 261.983 179.105 261.983L254.275 261.983C258.607 261.983 262.119 258.471 262.119 254.139L262.119 178.969C262.119 173.061 268.581 169.122 274.422 170.019C276.377 170.319 278.381 170.475 280.421 170.475C302.08 170.475 319.638 152.916 319.638 131.257C319.638 109.597 302.08 92.039 280.421 92.039Z" fill="red"/>
<path d="M262.119 178.969L255.119 178.969L262.119 178.969ZM274.422 170.019L273.36 176.938L274.422 170.019ZM92.6308 249.68L85.7118 250.742L92.6308 249.68ZM254.275 261.983L254.275 254.983L254.275 261.983ZM0.666561 83.5442L-6.33344 83.5442L0.666561 83.5442ZM12.9693 92.4949L14.0313 99.4139L12.9693 92.4949ZM179.105 261.983L179.105 268.983L179.105 261.983ZM0.666565 8.37419L7.66656 8.37419L0.666565 8.37419ZM170.155 12.8333L163.236 13.8954L170.155 12.8333ZM12.9693 170.019L11.9072 176.938L12.9693 170.019ZM262.119 8.37421L255.119 8.37421L262.119 8.37421ZM275.484 99.4139C277.089 99.1674 278.738 99.039 280.421 99.039L280.421 85.039C278.024 85.039 275.666 85.222 273.36 85.5759L275.484 99.4139ZM255.119 8.37421L255.119 83.5442L269.119 83.5442L269.119 8.37421L255.119 8.37421ZM179.105 7.53064L254.275 7.53064L254.275 -6.46936L179.105 -6.46936L179.105 7.53064ZM163.236 13.8954C163.482 15.5009 163.611 17.1493 163.611 18.8323L177.611 18.8323C177.611 16.4357 177.428 14.0773 177.074 11.7713L163.236 13.8954ZM163.611 18.8323C163.611 36.6257 149.186 51.0501 131.393 51.0501L131.393 65.0501C156.918 65.0501 177.611 44.3577 177.611 18.8323L163.611 18.8323ZM131.393 51.0501C113.599 51.0501 99.1749 36.6257 99.1749 18.8323L85.1749 18.8323C85.1749 44.3577 105.867 65.0501 131.393 65.0501L131.393 51.0501ZM99.1749 18.8323C99.1749 17.1493 99.3033 15.5009 99.5498 13.8954L85.7119 11.7713C85.3579 14.0773 85.1749 16.4357 85.1749 18.8323L99.1749 18.8323ZM8.51013 7.53063L83.6801 7.53063L83.6801 -6.46937L8.51013 -6.46937L8.51013 7.53063ZM7.66656 83.5442L7.66656 8.37419L-6.33344 8.37419L-6.33344 83.5442L7.66656 83.5442ZM18.9682 85.039C16.5717 85.039 14.2132 85.222 11.9072 85.5759L14.0313 99.4139C15.6369 99.1674 17.2852 99.039 18.9682 99.039L18.9682 85.039ZM65.1861 131.257C65.1861 105.731 44.4936 85.039 18.9682 85.039L18.9682 99.039C36.7617 99.039 51.1861 113.463 51.1861 131.257L65.1861 131.257ZM18.9683 177.475C44.4936 177.475 65.1861 156.782 65.1861 131.257L51.1861 131.257C51.1861 149.05 36.7617 163.475 18.9683 163.475L18.9683 177.475ZM11.9072 176.938C14.2132 177.292 16.5717 177.475 18.9683 177.475L18.9683 163.475C17.2853 163.475 15.6369 163.346 14.0313 163.1L11.9072 176.938ZM7.66655 254.139L7.66656 178.969L-6.33344 178.969L-6.33345 254.139L7.66655 254.139ZM83.6801 254.983L8.51012 254.983L8.51012 268.983L83.6801 268.983L83.6801 254.983ZM85.1749 243.681C85.1749 246.078 85.3579 248.436 85.7118 250.742L99.5498 248.618C99.3033 247.013 99.1749 245.364 99.1749 243.681L85.1749 243.681ZM131.393 197.463C105.867 197.463 85.1749 218.156 85.1749 243.681L99.1749 243.681C99.1749 225.888 113.599 211.463 131.393 211.463L131.393 197.463ZM177.611 243.681C177.611 218.156 156.918 197.463 131.393 197.463L131.393 211.463C149.186 211.463 163.611 225.888 163.611 243.681L177.611 243.681ZM177.074 250.742C177.428 248.436 177.611 246.078 177.611 243.681L163.611 243.681C163.611 245.364 163.482 247.013 163.236 248.618L177.074 250.742ZM254.275 254.983L179.105 254.983L179.105 268.983L254.275 268.983L254.275 254.983ZM255.119 178.969L255.119 254.139L269.119 254.139L269.119 178.969L255.119 178.969ZM280.421 163.475C278.738 163.475 277.089 163.346 275.484 163.1L273.36 176.938C275.666 177.292 278.024 177.475 280.421 177.475L280.421 163.475ZM312.638 131.257C312.638 149.05 298.214 163.475 280.421 163.475L280.421 177.475C305.946 177.475 326.638 156.782 326.638 131.257L312.638 131.257ZM280.421 99.039C298.214 99.039 312.638 113.463 312.638 131.257L326.638 131.257C326.638 105.731 305.946 85.039 280.421 85.039L280.421 99.039ZM269.119 178.969C269.119 178.794 269.173 178.31 270.043 177.712C270.972 177.074 272.26 176.769 273.36 176.938L275.484 163.1C270.743 162.372 265.88 163.588 262.117 166.172C258.296 168.797 255.119 173.237 255.119 178.969L269.119 178.969ZM83.6801 268.983C89.4128 268.983 93.8528 265.806 96.4773 261.985C99.0617 258.222 100.277 253.359 99.5498 248.618L85.7118 250.742C85.8806 251.842 85.5753 253.13 84.9374 254.058C84.3396 254.929 83.856 254.983 83.6801 254.983L83.6801 268.983ZM254.275 268.983C262.473 268.983 269.119 262.337 269.119 254.139L255.119 254.139C255.119 254.605 254.741 254.983 254.275 254.983L254.275 268.983ZM-6.33344 83.5442C-6.33344 89.2769 -3.15641 93.7169 0.664638 96.3414C4.42721 98.9258 9.29074 100.142 14.0313 99.4139L11.9072 85.5759C10.8077 85.7447 9.51983 85.4393 8.59109 84.8014C7.72079 84.2037 7.66656 83.7201 7.66656 83.5442L-6.33344 83.5442ZM163.236 248.618C162.508 253.359 163.724 258.222 166.308 261.985C168.933 265.806 173.373 268.983 179.105 268.983L179.105 254.983C178.929 254.983 178.446 254.929 177.848 254.058C177.21 253.13 176.905 251.842 177.074 250.742L163.236 248.618ZM8.51013 -6.46937C0.312256 -6.46937 -6.33344 0.17631 -6.33344 8.37419L7.66656 8.37419C7.66656 7.90831 8.04425 7.53063 8.51013 7.53063L8.51013 -6.46937ZM-6.33345 254.139C-6.33345 262.337 0.312244 268.983 8.51012 268.983L8.51012 254.983C8.04424 254.983 7.66655 254.605 7.66655 254.139L-6.33345 254.139ZM179.105 -6.46936C173.373 -6.46936 168.933 -3.29232 166.308 0.52871C163.724 4.29129 162.508 9.1548 163.236 13.8954L177.074 11.7713C176.905 10.6717 177.21 9.38389 177.848 8.45516C178.446 7.58487 178.929 7.53064 179.105 7.53064L179.105 -6.46936ZM99.5498 13.8954C100.277 9.15479 99.0617 4.29128 96.4773 0.528705C93.8528 -3.29233 89.4128 -6.46937 83.6801 -6.46937L83.6801 7.53063C83.856 7.53063 84.3396 7.58487 84.9373 8.45515C85.5753 9.38389 85.8806 10.6717 85.7119 11.7713L99.5498 13.8954ZM14.0313 163.1C9.29073 162.372 4.42724 163.588 0.664635 166.172C-3.15638 168.797 -6.33344 173.237 -6.33344 178.969L7.66656 178.969C7.66656 178.794 7.72079 178.31 8.59109 177.712C9.51983 177.074 10.8077 176.769 11.9072 176.938L14.0313 163.1ZM269.119 8.37421C269.119 0.17634 262.473 -6.46936 254.275 -6.46936L254.275 7.53064C254.741 7.53064 255.119 7.90831 255.119 8.37421L269.119 8.37421ZM273.36 85.5759C272.26 85.7447 270.972 85.4393 270.043 84.8014C269.173 84.2037 269.119 83.7201 269.119 83.5442L255.119 83.5442C255.119 89.2769 258.296 93.7169 262.117 96.3414C265.88 98.9258 270.743 100.142 275.484 99.4139L273.36 85.5759Z" fill="transparent"/>
</g>
</svg>
